<svg xmlns="http://www.w3.org/2000/svg" viewBox="0 0 768 112" width="768" height="112">
<title>Blitzen · eight animation frames</title>
<!-- Traced from https://chatgpt.com/s/m_6ab0d7ccdcd8819193863a73af623044; grid removed, palette simplified, feet aligned. -->
<g transform="translate(4.65 2.39) scale(1.3548)">
<path d="M0 0 C3.8 0.5 5.4 1.8 8.1 4.4 C9.7 7.8 9.4 11.1 8.4 14.6 C6.4 17.3 4.2 18.3 1.1 19.4 C-1.8 19.1 -1.8 19.1 -3.9 18.4 C-3.9 19.6 -3.9 20.7 -3.9 21.8 C-3.8 24.2 -3.9 25.3 -4.9 27.4 C-4.3 27.1 -3.7 26.8 -3.1 26.5 C-2.3 26.1 -1.5 25.8 -0.6 25.4 C0.2 25 1 24.6 1.8 24.2 C4.1 23.4 4.1 23.4 7.1 24.4 C6.4 25.8 6.4 25.8 5.1 27.4 C2.5 28.4 2.5 28.4 -0.6 29.1 C-1.6 29.4 -2.6 29.6 -3.6 29.9 C-4.4 30.1 -5.1 30.3 -5.9 30.4 C-6.3 28.8 -6.6 27.1 -6.9 25.4 C-9.6 27.8 -11.2 30.4 -12.9 33.4 C-12.1 33.7 -11.2 34 -10.2 34.2 C-7.2 35.3 -4.6 36.7 -1.9 38.4 C-2.8 45.9 -2.8 45.9 -4.9 49.4 C-3.9 50.8 -3 52.1 -1.9 53.4 C-4.8 53.7 -5.8 53.5 -8.2 51.9 C-8.8 51.4 -9.3 50.9 -9.9 50.4 C-8.3 47.1 -6.6 43.8 -4.9 40.4 C-6.2 39.8 -7.5 39.1 -8.8 38.5 C-9.5 38.1 -10.2 37.8 -10.9 37.4 C-12.9 36.4 -12.9 36.4 -15.9 35.4 C-16.2 36.1 -16.4 36.8 -16.6 37.6 C-18.2 41.1 -19.7 44.1 -22.9 46.4 C-25.6 46.9 -28 47.1 -30.6 47 C-32.9 47.4 -32.9 47.4 -34.7 49.5 C-34.9 49.8 -34.9 49.8 -35.9 51.4 C-36.9 51.1 -37.9 50.8 -38.9 50.4 C-37.6 48.1 -36.3 45.8 -34.9 43.4 C-34.2 43.6 -33.5 43.7 -32.7 43.8 C-29.6 44.1 -27 44.1 -23.9 43.4 C-21 40.6 -19.6 37.1 -17.9 33.4 C-16.7 31.3 -15.5 29.1 -14.2 27 C-13.6 26 -13 25 -12.5 24 C-11.3 22.1 -10.2 20.3 -8.9 18.4 C-11.9 18.4 -14.9 18.4 -17.9 18.4 C-18.9 21.1 -19.9 23.7 -20.9 26.4 C-22.3 26.1 -23.6 25.8 -24.9 25.4 C-23.6 21.8 -22.3 18.5 -19.9 15.4 C-17 14.9 -17 14.9 -13.8 15.1 C-12.7 15.2 -11.6 15.2 -10.5 15.3 C-10 15.3 -10 15.3 -7.9 15.4 C-8.3 14.8 -8.6 14.1 -8.9 13.4 C-9.1 11.1 -9 8.8 -8.9 6.4 C-9.3 6.5 -9.3 6.5 -11.4 7 C-15.6 7.7 -19.6 7.3 -23.8 7 C-24.6 6.9 -25.4 6.9 -26.2 6.8 C-28.1 6.7 -30 6.6 -31.9 6.4 C-31.9 5.8 -31.9 5.1 -31.9 4.4 C-31.3 4.4 -30.7 4.5 -30 4.5 C-24.5 4.5 -19 4.4 -13.5 4.1 C-13.2 4.1 -13.2 4.1 -11.7 4.1 C-6.8 3.8 -4.5 0.7 0 0 Z M-5.9 8.4 C-6.2 11.2 -6.3 12.9 -4.8 15.2 C-2.1 17 -0.1 16.8 3.1 16.4 C4.9 15.1 4.9 15.1 6.1 13.4 C6.1 12.4 6.1 11.5 6.1 10.4 C1.9 9.1 -1.5 8.2 -5.9 8.4 Z " fill="#1a221f" transform="translate(46.9,20.6)" />
<path d="" fill="#1a221f" transform="translate(0,0)" />
<path d="M0 0 C1.6 0 3.3 0 5 0 C5 0.3 5 0.7 5 1 C3.4 1 1.7 1 0 1 C0 0.7 0 0.3 0 0 Z " fill="#1a221f" transform="translate(17,38)" />
<path d="M0 0 C2.6 0 5.3 0 8 0 C8 0.3 8 0.7 8 1 C5.4 1 2.7 1 0 1 C0 0.7 0 0.3 0 0 Z " fill="#1a221f" transform="translate(12,44)" />

</g>
<g transform="translate(99.97 -0.32) scale(1.3548)">
<path d="M0 0 C3.2 2 4.8 4.3 6.1 7.9 C6 11.4 5.4 13.5 3.6 16.5 C0.4 19.5 -3.9 19.6 -8 20 C-7.3 21.3 -6.7 22.6 -6 24 C-5.3 23.6 -4.5 23.3 -3.8 22.9 C-0.9 22 0.2 22 3 23 C2.8 24.9 2.8 24.9 2 27 C-0.1 28.3 -0.1 28.3 -2.8 29.3 C-3.6 29.7 -4.5 30 -5.4 30.4 C-8.3 31.1 -10.1 30.8 -13 30 C-13.2 29.2 -13.2 29.2 -14 25 C-15.6 27.3 -17.3 29.6 -19 32 C-17.4 32.5 -17.4 32.5 -9 35 C-7.8 40.6 -8 43.1 -11 48 C-10 48.3 -9 48.7 -8 49 C-8 50 -8 51 -8 52 C-12.8 50.1 -12.8 50.1 -15 49 C-14.3 44.8 -12.1 41.5 -10 38 C-11.6 37.5 -13.2 37 -14.8 36.6 C-15.6 36.3 -16.5 36 -17.4 35.8 C-19.6 35.1 -21.8 34.5 -24 34 C-24.2 34.7 -24.4 35.3 -24.6 36 C-26.5 40.2 -28.6 43.9 -32 47 C-35 47.9 -37.8 48.1 -41 48 C-41.3 50.3 -41.7 52.6 -42 55 C-43.6 53.3 -43.6 53.3 -45 51 C-44.7 48.3 -44.2 46.4 -43 44 C-42.7 44 -42.7 44 -41.4 44.2 C-35.9 44.5 -35.9 44.5 -33.5 43.1 C-30.8 40.4 -28.8 37.3 -27 34 C-27.7 34 -28.3 34 -29 34 C-29.8 31.1 -30.2 29.5 -29.1 26.7 C-25.5 21.5 -22 17.4 -16 15 C-13.8 14.9 -13.8 14.9 -12 15 C-12.1 14.4 -12.3 13.8 -12.4 13.2 C-13.5 6.9 -13.5 6.9 -12 4.3 C-8.2 0.5 -5.3 -0.6 0 0 Z M-8 8 C-8.7 8.7 -9.3 9.3 -10 10 C-9.7 13.3 -9.4 14.6 -7 17 C-4.6 17.2 -2.3 16.8 0 16 C1.4 13.9 1.4 13.9 2 12 C1 12 0 12 -1 12 C-1.3 11.3 -1.7 10.7 -2 10 C-4 9.3 -6 8.6 -8 8 Z M-22.7 21.6 C-25.1 24.1 -24.9 26.7 -25 30 C-21.4 26.6 -18.7 23.2 -16 19 C-18.7 19 -20.5 20.2 -22.7 21.6 Z M-10 24 C-10.3 25.3 -10.7 26.6 -11 28 C-9.7 27.7 -8.4 27.3 -7 27 C-8 26 -9 25 -10 24 Z M-26 31 C-26 34 -26 34 -26 34 Z " fill="#1a221f" transform="translate(54,22)" />
<path d="M0 0 C3.6 0 7.3 0 11 0 C10.7 0.7 10.3 1.3 10 2 C8.7 2.1 7.4 2.1 6.1 2.1 C5.4 2.1 4.7 2.2 3.9 2.2 C2 2 2 2 0 0 Z " fill="#1a221f" transform="translate(29,26)" />
<path d="M0 0 C5.1 -0.6 5.1 -0.6 7.5 0.9 C10 3.2 10.9 4.4 11.3 7.8 C11.2 8.5 11.1 9.3 11 10 C9 11 9 11 7 10.5 C6.7 10.4 6.7 10.4 4.8 9.7 C4.4 9.5 4.4 9.5 2.3 8.8 C1.6 8.6 0.8 8.3 0 8 C-1.2 7.6 -2.4 7.2 -3.6 6.8 C-4.4 6.5 -5.2 6.3 -6 6 C-5.4 5.5 -4.8 5.1 -4.1 4.6 C-2 3 -2 3 0 1 C0 0.7 0 0.3 0 0 Z M1 3 C1 3.7 1 4.3 1 5 C1.7 5 2.3 5 3 5 C3 4.3 3 3.7 3 3 C2.3 3 1.7 3 1 3 Z " fill="#9584bd" transform="translate(48,22)" />

</g>
<g transform="translate(193.94 3.74) scale(1.3548)">
<path d="M0 0 C2 1.6 2 1.6 3 4 C3.3 8.6 2.9 11.9 -0.1 15.6 C-3.8 17.4 -6 17.3 -10 17 C-10 19.3 -10 21.6 -10 24 C-9.5 23.8 -9.1 23.6 -8.6 23.3 C-8 23.1 -7.3 22.8 -6.7 22.5 C-6.1 22.2 -5.5 21.9 -4.8 21.7 C-3 21 -3 21 0 21 C0 22 0 23 0 24 C-8 28.1 -8 28.1 -12.1 27.8 C-12.7 27.5 -13.3 27.3 -14 27 C-14 25.4 -14 23.7 -14 22 C-14.7 22 -15.3 22 -16 22 C-16.3 22.7 -16.5 23.5 -16.8 24.2 C-17.9 26.9 -19.2 28.8 -21 31 C-20.3 31.1 -19.6 31.2 -18.9 31.3 C-15.4 32.1 -13 33.1 -10 35 C-8.9 36.8 -8.9 36.8 -9 39 C-9.9 41 -10.9 43 -12 45 C-12 45.7 -12 46.3 -12 47 C-11.7 47.2 -11.7 47.2 -10 48 C-10 49 -10 50 -10 51 C-12 50.3 -14 49.7 -16 49 C-16.4 45.2 -15 43.2 -13 40 C-13 39 -13 38 -13 37 C-14.2 36.5 -15.5 35.9 -16.8 35.4 C-17.4 35.1 -18.1 34.9 -18.9 34.6 C-21.4 33.9 -22.6 33.9 -25 35 C-26.5 36.8 -26.5 36.8 -27.8 39 C-30.5 42.8 -30.5 42.8 -32.8 43.8 C-35.5 44.1 -38.1 44 -40.8 43.9 C-41.5 43.9 -42.3 44 -43 44 C-44.2 45.5 -44.2 45.5 -45 47 C-45.7 47 -46.3 47 -47 47 C-46.1 42.2 -46.1 42.2 -45 40 C-44.2 40.1 -43.5 40.3 -42.7 40.4 C-34.6 41.3 -34.6 41.3 -31.6 39 C-29 36.1 -27 32.8 -25 29.5 C-23.6 27.4 -22.1 25.5 -20.6 23.5 C-18.7 21.1 -17.3 18.7 -16 16 C-22.9 14.4 -22.9 14.4 -25.6 15.8 C-27 16.9 -27 16.9 -29 19 C-29.3 18.3 -29.7 17.7 -30 17 C-28.9 14.4 -28.9 14.4 -27 12 C-22.3 10.4 -19.4 11.2 -15 13 C-15 10.4 -15 7.7 -15 5 C-16.6 5.3 -18.3 5.7 -20 6 C-20 6.7 -20 7.3 -20 8 C-21 7.7 -22 7.3 -23 7 C-22.7 6.3 -22.3 5.7 -22 5 C-22.6 5 -23.1 5 -23.7 5 C-26.2 5.1 -28.7 5.1 -31.2 5.1 C-31.7 5.1 -31.7 5.1 -33.9 5.2 C-34.7 5.2 -35.6 5.2 -36.5 5.2 C-37.2 5.2 -38 5.2 -38.8 5.2 C-41.3 5 -42.9 4.2 -45 3 C-44 3 -43.1 3 -42.1 3 C-38.6 2.9 -35 2.8 -31.5 2.7 C-30 2.7 -28.4 2.7 -26.9 2.7 C-24.7 2.6 -22.5 2.6 -20.3 2.5 C-19.6 2.5 -18.9 2.5 -18.2 2.5 C-13.4 2.3 -13.4 2.3 -11.2 0.5 C-11 0.3 -11 0.3 -10 -1 C-6.1 -2.3 -3.7 -1.6 0 0 Z M-12 7 C-12.8 8.8 -12.8 8.8 -13 11 C-11.5 13.3 -11.5 13.3 -9 15 C-6.5 15 -4.5 14.6 -2 14 C-1.7 12.7 -1.3 11.4 -1 10 C-8.3 6.6 -8.3 6.6 -12 7 Z " fill="#1a221f" transform="translate(59,23)" />
<path d="" fill="#1a221f" transform="translate(0,0)" />
<path d="M0 0 C2.6 0 5.3 0 8 0 C7.7 0.7 7.3 1.3 7 2 C5 2 3 2 1 2 C0.7 1.3 0.3 0.7 0 0 Z " fill="#1a221f" transform="translate(21,37)" />
<path d="M0 0 C2.6 0.4 2.6 0.4 5 1 C4.7 1.7 4.3 2.3 4 3 C3 2.8 3 2.8 -2 2 C-1.3 1.3 -0.7 0.7 0 0 Z " fill="#1a221f" transform="translate(21,43)" />
<path d="M0 0 C1.3 0.7 2.6 1.3 4 2 C2.4 2.3 0.7 2.7 -1 3 C-0.7 2 -0.3 1 0 0 Z " fill="#1a221f" transform="translate(28,43)" />
<path d="M0 0 C7.1 -0.6 7.1 -0.6 10.4 1.8 C12 4 12.4 5.4 13 8 C8 7.6 3.6 7.2 -1 5 C-0.7 3.4 -0.3 1.7 0 0 Z " fill="#9584bd" transform="translate(49,22)" />
<path d="M0 0 C9.6 0 19.1 0 29 0 C28.7 0.5 28.7 0.5 27 3 C18.1 2.3 9.2 1.7 0 1 C0 0.7 0 0.3 0 0 Z " fill="#9584bd" transform="translate(17,26)" />

</g>
<g transform="translate(287.90 -1.68) scale(1.3548)">
<path d="M0 0 C3.4 0.4 5.8 1 8 3.7 C9.7 6.8 9.6 10 8.9 13.4 C7.3 16.3 5.3 18 2.1 18.9 C-0.6 19.4 -2.5 19.6 -5.1 18.4 C-5.1 20.7 -5.1 23 -5.1 25.4 C-4.5 25.1 -4 24.8 -3.4 24.5 C-2.7 24.1 -2 23.7 -1.2 23.3 C-0.5 22.9 0.2 22.5 0.9 22.2 C2.9 21.4 2.9 21.4 5.9 22.4 C4.9 25.4 4.9 25.4 2.5 26.6 C2 26.8 2 26.8 -0.4 27.6 C-1.4 28 -2.4 28.3 -3.4 28.7 C-6.1 29.4 -6.1 29.4 -9.1 28.4 C-9.1 26.7 -9.1 25.1 -9.1 23.4 C-11.4 26 -13.7 28.7 -16.1 31.4 C-13.4 33 -10.8 34.7 -8.1 36.4 C-8.4 38.7 -8.4 38.7 -10.1 41.4 C-14.3 43.2 -18.5 44.4 -23.1 44.4 C-23.1 46 -23.1 47.7 -23.1 49.4 C-23.6 49.2 -23.6 49.2 -26.1 48.4 C-26.4 47.1 -26.7 45.7 -27.1 44.4 C-28.5 45.7 -28.5 45.7 -36.1 52.4 C-35.7 53.4 -35.4 54.4 -35.1 55.4 C-35.7 55.5 -35.7 55.5 -39.1 56.4 C-39.8 54.7 -39.8 54.7 -40.1 52.4 C-38 49.1 -35.9 47.2 -32.7 45.1 C-28.9 42.5 -26.6 39.5 -24.1 35.6 C-23.2 34.4 -22.4 33.1 -21.5 31.9 C-21.1 31.3 -20.7 30.7 -20.3 30.1 C-18.1 27 -15.7 24 -13.2 21 C-12.1 19.4 -12.1 19.4 -12.1 17.4 C-18.3 16 -18.3 16 -22 17.8 C-22.7 18.3 -23.4 18.8 -24.1 19.4 C-24.8 17.7 -24.8 17.7 -25.1 15.4 C-23 11.5 -20.3 8.3 -17.1 5.4 C-14.6 4.6 -12.7 4.5 -10.1 4.5 C-5.9 4.2 -4.3 0.5 0 0 Z M-18.1 11.4 C-17.1 13.4 -17.1 13.4 -15.2 14 C-14.5 14.2 -13.8 14.3 -13 14.5 C-12.3 14.7 -11.5 14.8 -10.8 15 C-10.2 15.1 -9.6 15.3 -9.1 15.4 C-9.1 12.7 -9.1 10.1 -9.1 7.4 C-13.6 6.9 -15.1 7.9 -18.1 11.4 Z M-6.1 8.4 C-6.4 10 -6.7 11.7 -7.1 13.4 C-2.8 17.4 -2.8 17.4 0.6 17.4 C2.9 16.4 2.9 16.4 4.2 14.3 C4.5 13.7 4.7 13 4.9 12.4 C1.4 10.4 -2.2 9.4 -6.1 8.4 Z M-20.1 34.4 C-20.9 35.5 -20.9 35.5 -25.1 41.4 C-23.1 42.4 -23.1 42.4 -20.2 41.6 C-19.1 41.2 -18 40.8 -16.9 40.4 C-16.4 40.2 -15.8 40 -15.2 39.8 C-13.8 39.4 -12.5 38.9 -11.1 38.4 C-13.8 35.3 -15.9 34.8 -20.1 34.4 Z " fill="#1a221f" transform="translate(56.1,21.6)" />
<path d="M0 0 C0 0.3 0 0.7 0 1 C-3.3 1 -6.6 1 -10 1 C-10 0.7 -10 0.3 -10 0 C-6.3 -0.7 -3.6 -1.2 0 0 Z " fill="#1a221f" transform="translate(30,37)" />
<path d="M0 0 C1 0.3 2 0.7 3 1 C2.7 1.7 2.3 2.3 2 3 C1 2.7 0 2.3 -1 2 C-0.7 1.3 -0.3 0.7 0 0 Z " fill="#1a221f" transform="translate(30,43)" />
<path d="M0 0 C2.3 0 4.6 0 7 0 C7 0.3 7 0.7 7 1 C4.7 1 2.4 1 0 1 C0 0.7 0 0.3 0 0 Z " fill="#1a221f" transform="translate(20,44)" />
<path d="M0 0 C2.4 2.2 2.4 2.2 4 5 C4.1 7.7 4.1 7.7 4 10 C3.4 9.7 2.7 9.5 2.1 9.2 C-2.9 7.2 -7.8 5.4 -13 4 C-12.3 3.3 -11.7 2.7 -11 2 C-10.7 1.3 -10.3 0.7 -10 0 C-6.4 -1.2 -3.5 -1.2 0 0 Z " fill="#9584bd" transform="translate(61,23)" />

</g>
<g transform="translate(383.90 3.74) scale(1.3548)">
<path d="M0 0 C2.3 1.3 2.8 2.3 3.5 4.8 C4.1 8.2 4.2 10.5 3 13.8 C0.4 16.7 -2.2 18.1 -6 19 C-8.4 18.7 -8.4 18.7 -10 18 C-9.8 18.8 -9.8 18.8 -9 23 C-8.3 22.6 -7.5 22.3 -6.8 21.9 C-3.9 21 -2.8 21 0 22 C0 23.3 0 24.6 0 26 C-1.6 26.7 -3.2 27.3 -4.8 28 C-5.6 28.4 -6.5 28.7 -7.4 29.1 C-9.8 29.9 -11.5 30.2 -14 30 C-14.2 28.8 -14.2 28.8 -15 23 C-17 25.3 -19 27.6 -21 30 C-20.6 30.2 -20.6 30.2 -18.8 30.9 C-18.4 31.1 -18.4 31.1 -16.1 32.2 C-15.1 32.6 -14.2 33 -13.3 33.4 C-11 35 -11 35 -10.1 37.5 C-10 41.1 -11.7 42.4 -14 45 C-14 45.7 -14 46.3 -14 47 C-13.8 47.2 -13.8 47.2 -12.5 48 C-12.3 48.2 -12.3 48.2 -11 49 C-11 49.7 -11 50.3 -11 51 C-14.1 50.5 -16.5 50 -19 48 C-17.2 44.2 -15.1 40.6 -13 37 C-13.7 36.8 -14.4 36.6 -15.1 36.4 C-16 36.1 -16.9 35.8 -17.8 35.6 C-18.7 35.3 -19.6 35 -20.5 34.8 C-22.4 34.2 -24.2 33.6 -26 33 C-26.2 33.7 -26.5 34.4 -26.7 35.2 C-28.2 38.5 -29.9 41.1 -33 43 C-37.3 44 -41.6 44 -46 44 C-46.3 45 -46.7 46 -47 47 C-47.7 47 -48.3 47 -49 47 C-48.2 42.2 -48.2 42.2 -46 40 C-44.1 40 -42.1 40.2 -40.2 40.3 C-34.6 40.5 -34.6 40.5 -32.1 38.4 C-30.9 36.7 -29.9 35 -29 33 C-30 32.3 -31 31.7 -32 31 C-31.4 25.7 -29.3 21.8 -25.1 18.5 C-21.4 16 -18.6 14.3 -14 15 C-14.1 14.5 -14.2 14 -14.3 13.4 C-14.9 9.8 -15.3 7.6 -13.9 4.2 C-9.5 -0.9 -6.3 -1.6 0 0 Z M-9 7 C-10 7.7 -11 8.3 -12 9 C-11.4 13.5 -11.4 13.5 -9.8 15.4 C-6.9 16.4 -4.9 15.9 -2 15 C-0.6 12.9 -0.6 12.9 0 11 C-0.5 10.8 -1 10.6 -1.5 10.4 C-2.1 10.1 -2.7 9.8 -3.4 9.6 C-4 9.3 -4.6 9 -5.3 8.8 C-6.5 8.2 -7.8 7.6 -9 7 Z M-22.4 19.6 C-25.6 21.3 -26.7 22.7 -28 26 C-27.3 27.3 -26.7 28.6 -26 30 C-23.4 26.7 -20.7 23.4 -18 20 C-20 19 -20 19 -22.4 19.6 Z M-13 24 C-13 25 -13 26 -13 27 C-11.4 27 -9.7 27 -8 27 C-11.9 24 -11.9 24 -13 24 Z " fill="#1a221f" transform="translate(62,23)" />
<path d="M0 0 C1 0.3 2 0.7 3 1 C1.7 1.3 0.4 1.7 -1 2 C-0.7 1.3 -0.3 0.7 0 0 Z " fill="#1a221f" transform="translate(44,26)" />
<path d="M0 0 C2.3 0 4.6 0 7 0 C7 0.3 7 0.7 7 1 C4.7 1 2.4 1 0 1 C0 0.7 0 0.3 0 0 Z " fill="#1a221f" transform="translate(34,31)" />
<path d="M0 0 C1.1 0 2.2 0 3.3 0.1 C3.7 0.1 3.7 0.1 5.8 0.1 C5.8 0.8 5.8 1.4 5.8 2.1 C0.9 2.1 -4.1 2.1 -9.2 2.1 C-5.7 -0.2 -4.2 -0.1 0 0 Z " fill="#1a221f" transform="translate(24.2,37.9)" />
<path d="M0 0 C3.6 0 7.3 0 11 0 C11 0.7 11 1.3 11 2 C7.4 2 3.7 2 0 2 C0 1.3 0 0.7 0 0 Z " fill="#1a221f" transform="translate(16,50)" />
<path d="M0 0 C1.9 1.1 1.9 1.1 3 3 C3.5 5.7 3.8 8.3 4 11 C3.5 10.8 3.1 10.6 2.6 10.4 C-2.9 8.1 -8.1 7.4 -14 7 C-13.4 3.7 -13.1 3.1 -10.4 0.7 C-6.6 -1.6 -4.2 -1.2 0 0 Z M-9 4 C-9 4.7 -9 5.3 -9 6 C-8.3 5.7 -7.7 5.3 -7 5 C-7.7 4.7 -8.3 4.3 -9 4 Z M-1 4 C-1.3 4.7 -1.7 5.3 -2 6 C-1.3 6 -0.7 6 0 6 C-0.3 5.3 -0.7 4.7 -1 4 Z " fill="#9584bd" transform="translate(62,23)" />
<path d="M0 0 C1.1 0 2.2 0 3.3 0.1 C3.7 0.1 3.7 0.1 5.8 0.1 C5.8 0.8 5.8 1.4 5.8 2.1 C0.9 2.1 -4.1 2.1 -9.2 2.1 C-5.7 -0.2 -4.2 -0.1 0 0 Z " fill="#d48fa7" transform="translate(24.2,37.9)" />
<path d="M0 0 C3.6 0 7.3 0 11 0 C11 0.7 11 1.3 11 2 C7.4 2 3.7 2 0 2 C0 1.3 0 0.7 0 0 Z " fill="#d48fa7" transform="translate(16,50)" />

</g>
<g transform="translate(477.87 3.74) scale(1.3548)">
<path d="M0 0 C2.7 2.1 4.7 4.3 5.3 7.8 C5 11.8 3.5 14.4 0.5 17.1 C-2 18.6 -4.2 18.9 -7 19 C-8 18.7 -9 18.3 -10 18 C-9.8 18.8 -9.8 18.8 -9 23 C-6 22.4 -3 21.8 0 21 C0.7 22.3 1.3 23.6 2 25 C-1.1 28.1 -4.8 29 -9 30 C-12.1 29.7 -12.1 29.7 -14 29 C-14 27 -14 25 -14 23 C-14.8 23.8 -15.6 24.5 -16.5 25.3 C-17 25.7 -17.4 26.2 -17.9 26.6 C-19 28 -19 28 -19 31 C-17.5 31.7 -17.5 31.7 -10 35 C-10.5 39.4 -11.2 43 -13 47 C-12.7 47.2 -12.7 47.2 -11 48 C-11 49 -11 50 -11 51 C-13.8 50.4 -15.7 49.7 -18 48 C-16.3 44.7 -14.7 41.3 -13 38 C-14.4 37.3 -15.8 36.6 -17.2 35.9 C-17.6 35.7 -17.6 35.7 -19.6 34.8 C-22.4 33.9 -23.4 33.7 -26 35 C-27.9 37.2 -27.9 37.2 -29.7 40 C-30.3 40.9 -30.9 41.8 -31.5 42.8 C-32 43.5 -32.5 44.2 -33 45 C-34 46 -34 46 -36.8 46.1 C-40 46 -40 46 -42.1 45.3 C-44 45 -44 45 -46.2 46.4 C-46.5 46.7 -46.5 46.7 -48 48 C-48.3 45.2 -48.1 44.2 -46.5 41.8 C-46 41.2 -45.5 40.6 -45 40 C-44.3 40.3 -43.6 40.7 -42.8 41 C-39.8 42.1 -38.1 42.4 -35 42 C-33 40.1 -33 40.1 -31.2 37.6 C-31 37.2 -31 37.2 -29.5 35.2 C-28 33 -28 33 -27 31 C-27.5 31.2 -27.5 31.2 -30 32 C-30.7 30.3 -30.7 30.3 -31 28 C-29.9 25.7 -29.9 25.7 -28.3 23.4 C-28.1 23.1 -28.1 23.1 -26.7 21.1 C-23 16.6 -19.5 15.4 -14 14 C-14.2 13.1 -14.5 12.2 -14.7 11.3 C-15.1 7.3 -14.5 6.1 -12 3 C-8.2 -0.6 -5.2 -2 0 0 Z M-10 9 C-10.7 10.8 -10.7 10.8 -11 13 C-9.9 14.8 -9.9 14.8 -8 16 C-4.7 16.4 -2.8 16.6 -0.1 14.6 C1 13 1 13 1 11 C0 11 -1 11 -2 11 C-2 10.3 -2 9.7 -2 9 C-4.6 9 -7.3 9 -10 9 Z M-23.7 20.6 C-26.1 23.1 -25.9 25.7 -26 29 C-22.4 25.6 -19.7 22.2 -17 18 C-19.7 18 -21.5 19.2 -23.7 20.6 Z M-12 24 C-12 25 -12 26 -12 27 C-10.7 26.7 -9.4 26.3 -8 26 C-9 26 -10 26 -11 26 C-11.3 25.3 -11.7 24.7 -12 24 Z " fill="#1a221f" transform="translate(63,23)" />
<path d="M0 0 C1.6 0 3.3 0 5 0 C5 0.7 5 1.3 5 2 C3 2 1 2 -1 2 C-0.7 1.3 -0.3 0.7 0 0 Z " fill="#1a221f" transform="translate(44,26)" />
<path d="M0 0 C2 0 4 0 6 0 C6 0.7 6 1.3 6 2 C5 1.8 5 1.8 0 1 C0 0.7 0 0.3 0 0 Z " fill="#1a221f" transform="translate(34,31)" />
<path d="M0 0 C2 0 4 0 6 0 C5.7 0.7 5.3 1.3 5 2 C3.4 1.7 1.7 1.3 0 1 C0 0.7 0 0.3 0 0 Z " fill="#1a221f" transform="translate(19,38)" />
<path d="M0 0 C3.6 0 7.3 0 11 0 C11 0.3 11 0.7 11 1 C7.7 1.3 4.4 1.7 1 2 C0.7 1.3 0.3 0.7 0 0 Z " fill="#1a221f" transform="translate(26,38)" />
<path d="M0 0 C0.3 0.7 0.7 1.3 1 2 C0.3 1.7 -0.3 1.3 -1 1 C-0.7 0.7 -0.3 0.3 0 0 Z " fill="#1a221f" transform="translate(24,45)" />
<path d="M0 0 C3.6 0 7.3 0 11 0 C11 0.7 11 1.3 11 2 C7.4 2 3.7 2 0 2 C0 1.3 0 0.7 0 0 Z " fill="#1a221f" transform="translate(15,50)" />
<path d="M0 0 C3.2 2.2 3.9 3.5 4.8 7.2 C4.8 7.7 4.8 7.7 5 10 C4.4 9.9 3.9 9.9 3.3 9.8 C3 9.7 3 9.7 1.1 9.5 C0.4 9.4 -0.3 9.3 -1.1 9.2 C-3 9 -3 9 -5 9 C-7.9 8.4 -10.4 7.4 -13 6 C-12.1 3.7 -11.3 2.3 -9.3 0.8 C-6.1 -0.3 -3.3 -0.6 0 0 Z " fill="#9584bd" transform="translate(63,23)" />
<path d="M0 0 C3.6 0 7.3 0 11 0 C11 0.7 11 1.3 11 2 C7.4 2 3.7 2 0 2 C0 1.3 0 0.7 0 0 Z " fill="#d48fa7" transform="translate(15,50)" />

</g>
<g transform="translate(572.52 1.03) scale(1.3548)">
<path d="M0 0 C2.6 0.6 4.2 1.7 5.9 3.7 C7.3 6.6 7.1 9.1 6.5 12.2 C5.5 15.2 4.1 16.8 1.5 18.7 C-1.6 20 -4 19.2 -7.2 18.4 C-7.2 20.4 -7.2 22.4 -7.2 24.4 C-4.3 23.7 -1.3 23.1 1.8 22.4 C1.8 23.7 1.8 25 1.8 26.4 C0.3 26.9 -1.1 27.5 -2.5 28 C-3.3 28.3 -4.1 28.5 -4.9 28.8 C-7.4 29.4 -8.8 29.2 -11.2 28.4 C-11.4 27.6 -11.4 27.6 -12.2 23.4 C-14.2 26.4 -16.2 29.3 -18.2 32.4 C-16.8 32.8 -15.4 33.3 -13.9 33.7 C-10.6 34.7 -8.6 35.7 -6.2 38.4 C-7.4 41.9 -8.5 45.2 -10.2 48.4 C-9.9 48.6 -9.9 48.6 -8.2 49.4 C-8.2 50.4 -8.2 51.4 -8.2 52.4 C-10.2 51.7 -12.2 51.1 -14.2 50.4 C-14.6 46.9 -13.7 45.1 -11.7 42.2 C-11.5 41.8 -11.5 41.8 -10.3 40 C-10 39.5 -9.6 38.9 -9.2 38.4 C-10.7 37.9 -12.1 37.4 -13.5 37 C-14.3 36.7 -15.1 36.4 -15.9 36.2 C-18 35.5 -20.1 34.9 -22.2 34.4 C-22.5 34.9 -22.7 35.5 -22.9 36 C-25.9 41.5 -28.4 44.3 -34.4 46.4 C-39 48 -39 48 -40.3 50 C-40.9 51.7 -40.9 51.7 -41.2 54.4 C-41.9 54.4 -42.6 54.4 -43.2 54.4 C-43.2 52.1 -43.2 49.8 -43.2 47.4 C-41.6 46.6 -40 45.8 -38.4 45 C-38 44.7 -38 44.7 -35.7 43.6 C-33.2 42.4 -33.2 42.4 -30.2 41.4 C-29 40 -29 40 -27.8 38.3 C-27.3 37.7 -26.8 37 -26.4 36.4 C-25.9 35.7 -25.4 35 -24.9 34.3 C-24 33 -23 31.6 -22 30.2 C-21.5 29.6 -21 28.9 -20.6 28.2 C-18.9 26 -17.2 23.7 -15.6 21.5 C-15.1 20.9 -14.6 20.3 -14.2 19.6 C-14 19.4 -14 19.4 -13.2 18.4 C-16.9 16.4 -16.9 16.4 -19.8 16.6 C-22.5 17.5 -23.6 18.2 -25.2 20.4 C-25.9 22.6 -25.9 22.6 -26.2 24.4 C-27.2 24.4 -28.2 24.4 -29.2 24.4 C-28.3 19.9 -27.3 16.4 -23.8 13.2 C-20.7 11.6 -17.5 12.7 -14.2 13.4 C-13.6 13.4 -12.9 13.4 -12.2 13.4 C-11.9 11.1 -11.6 8.8 -11.2 6.4 C-13.6 6.7 -15.9 7.1 -18.2 7.4 C-18.2 8.1 -18.2 8.7 -18.2 9.4 C-17.6 9.7 -16.9 10.1 -16.2 10.4 C-17.6 10.4 -18.9 10.4 -20.2 10.4 C-20.6 9.4 -20.9 8.4 -21.2 7.4 C-22.8 6.2 -22.8 6.2 -24.2 5.4 C-22.2 3.3 -17.4 4.1 -14.5 4 C-8.8 3.7 -5.7 -0.3 0 0 Z M-8.2 8.4 C-8.9 10.7 -8.9 10.7 -9.2 13.4 C-8.2 15.2 -8.2 15.2 -6.2 16.4 C-3.9 16.6 -1.7 16.5 0.8 16.4 C1.4 15.1 2.1 13.8 2.8 12.4 C1.5 11.7 0.2 11.1 -1.1 10.4 C-1.8 10 -2.5 9.7 -3.2 9.3 C-5.2 8.4 -5.2 8.4 -8.2 8.4 Z " fill="#1a221f" transform="translate(61.2,21.6)" />
<path d="M0 0 C2.6 0 5.3 0 8 0 C8 0.3 8 0.7 8 1 C5.4 1 2.7 1 0 1 C0 0.7 0 0.3 0 0 Z " fill="#1a221f" transform="translate(26,37)" />
<path d="M0 0 C2.3 0 4.6 0 7 0 C6.3 0.7 5.7 1.3 5 2 C2.4 1.6 2.4 1.6 0 1 C0 0.7 0 0.3 0 0 Z " fill="#1a221f" transform="translate(23,44)" />
<path d="M0 0 C2.9 0.6 4 1.9 5.7 4.3 C6.4 7.6 6.4 7.6 6.7 10.3 C2.2 9.8 -0.5 8.6 -4.3 6.3 C-7.6 5.7 -7.6 5.7 -10.3 5.3 C-10.7 6 -11 6.7 -11.3 7.3 C-15.3 7 -19.2 6.7 -23.3 6.3 C-23.3 6 -23.3 5.7 -23.3 5.3 C-22.8 5.3 -22.8 5.3 -20.4 5 C-19.1 4.9 -17.8 4.7 -16.6 4.5 C-15.9 4.5 -15.3 4.4 -14.6 4.3 C-9 3.6 -5.7 -0.3 0 0 Z " fill="#9584bd" transform="translate(61.3,21.7)" />

</g>
<g transform="translate(667.84 2.39) scale(1.3548)">
<path d="M0 0 C3.4 2 4.8 4.3 6 8 C6 11.6 5.2 13.2 3 16 C0.3 18.7 -3.4 18.6 -7 19 C-7 21 -7 23 -7 25 C-6.1 24.5 -5.1 24 -4.2 23.5 C-1.8 22.2 -0.9 22 2 22 C1.7 23.3 1.3 24.6 1 26 C-2.6 27 -6.3 28 -10 29 C-12 27 -12 27 -12.1 24.9 C-12.1 24.3 -12 23.6 -12 23 C-12.7 24.1 -13.3 25.2 -14 26.4 C-14.4 27 -14.7 27.6 -15.1 28.3 C-16 30 -16 30 -16 32 C-15.4 32.2 -14.7 32.5 -14.1 32.7 C-13.2 33.1 -12.4 33.4 -11.6 33.8 C-10.7 34.1 -9.9 34.4 -9.1 34.7 C-7 36 -7 36 -6.1 37.9 C-6 40.5 -6.7 41.9 -7.9 44.2 C-8.1 44.6 -8.1 44.6 -9.1 46.4 C-9.4 46.9 -9.7 47.5 -10 48 C-9 48.7 -8 49.3 -7 50 C-7.3 51 -7.7 52 -8 53 C-10.3 51.7 -12.6 50.4 -15 49 C-13.2 45.2 -11.1 41.6 -9 38 C-10.4 37.5 -11.9 37 -13.3 36.5 C-14.1 36.2 -14.9 35.9 -15.7 35.7 C-18 35 -18 35 -21 35 C-22.6 36.9 -22.6 36.9 -24.1 39.4 C-27 44 -27 44 -28 45 C-29.9 44.9 -31.7 44.8 -33.6 44.6 C-34.6 44.5 -35.6 44.4 -36.6 44.3 C-37.4 44.2 -38.2 44.1 -39 44 C-39.7 45 -40.3 46 -41 47 C-42 46.7 -43 46.3 -44 46 C-42.9 43.5 -42.9 43.5 -41 41 C-38.3 40.9 -38.3 40.9 -35.2 41.3 C-29.6 41.5 -29.6 41.5 -26.9 39.2 C-25.1 36.5 -23.5 33.8 -22 31 C-20.8 29 -19.5 27 -18.2 25.1 C-17.6 24.2 -17.1 23.3 -16.5 22.3 C-15.3 20.5 -14.2 18.8 -13 17 C-19.7 15.4 -19.7 15.4 -22.9 16.8 C-24.5 17.9 -24.5 17.9 -27 20 C-26.7 17.4 -26.2 15.4 -24.9 13.1 C-21.7 11.3 -18.5 12.2 -15 13 C-12.5 14.1 -12.5 14.1 -11 15 C-11.2 14.7 -11.2 14.7 -12 13 C-12.1 10.7 -12 8.3 -12 6 C-14.9 7.1 -17.5 8.2 -20 10 C-20 8.7 -20 7.4 -20 6 C-20.3 6 -20.3 6 -21.7 6 C-24.3 6.1 -26.8 6.1 -29.4 6.1 C-30.3 6.1 -31.2 6.2 -32.1 6.2 C-32.9 6.2 -33.8 6.2 -34.6 6.2 C-35 6.2 -35 6.2 -37 6.2 C-39 6 -39 6 -41 4 C-30.8 4 -20.5 4 -10 4 C-9.7 3 -9.3 2 -9 1 C-6 -0.5 -3.2 -0.6 0 0 Z M-9 8 C-9.8 9.8 -9.8 9.8 -10 12 C-8 14.8 -6.8 15.9 -3.4 16.4 C-0.6 15.9 0.3 15.3 2 13 C2 12.3 2 11.7 2 11 C-5.3 7.6 -5.3 7.6 -9 8 Z " fill="#1a221f" transform="translate(58,22)" />
<path d="M0 0 C2.6 0 5.3 0 8 0 C7.7 0.7 7.3 1.3 7 2 C4.7 2 2.4 2 0 2 C0 1.3 0 0.7 0 0 Z " fill="#1a221f" transform="translate(22,37)" />
<path d="M0 0 C2.6 0 5.3 0 8 0 C8 0.3 8 0.7 8 1 C5.4 1 2.7 1 0 1 C0 0.7 0 0.3 0 0 Z " fill="#1a221f" transform="translate(21,44)" />
<path d="" fill="#1a221f" transform="translate(0,0)" />
<path d="M0 0 C8.9 0 17.8 0 27 0 C26.7 0.5 26.7 0.5 25 3 C24 2.8 24 2.8 19 2 C19.3 3 19.7 4 20 5 C19 5 18 5 17 5 C17 4.3 17 3.7 17 3 C11.4 2.3 5.8 1.7 0 1 C0 0.7 0 0.3 0 0 Z " fill="#9584bd" transform="translate(21,26)" />

</g>
</svg>
